<?xml version="1.0" encoding="utf-8"?>
<!-- Generator: Adobe Illustrator 27.4.0, SVG Export Plug-In . SVG Version: 6.00 Build 0)  -->
<svg version="1.1" id="Layer_1" xmlns="http://www.w3.org/2000/svg" xmlns:xlink="http://www.w3.org/1999/xlink" x="0px" y="0px"
	 viewBox="0 0 300 50" style="enable-background:new 0 0 300 50;" xml:space="preserve">
<g>
	<path d="M59.06,5.55v38.9H48.28l-6.62-0.1c-10.15,0-11.64-5.96-12.12-12.52c0-0.01,0-0.02,0-0.03c-0.04-0.62-0.09-1.23-0.14-1.85
		c-0.03-0.57-0.06-1.14-0.09-1.7c-0.3-6.5-1.4-12.4-10.6-12.4H11.5v18.13h6.9v10.47H0.72V5.55H11.5l6.62,0.1
		c10.15,0,11.64,5.96,12.12,12.52c0,0.01,0,0.02,0,0.03c0.04,0.62,0.09,1.25,0.14,1.88c0.03,0.55,0.06,1.09,0.08,1.63
		c0.3,6.52,1.38,12.44,10.6,12.44h7.21V16.02h-6.9V5.55H59.06z"/>
	<g>
		<path d="M93.63,24.98c0,9.96-6.42,11.57-12.59,11.57h-8.52V13.45h8.52C87.21,13.45,93.63,15.05,93.63,24.98z M88.39,24.98
			c0-6.62-3.24-6.95-7.34-6.95h-3.28v13.93h3.28C85.14,31.96,88.39,31.64,88.39,24.98z"/>
		<path d="M107.73,13.12c7.31,0,11.77,5.15,11.77,11.86c0,6.75-4.46,11.9-11.77,11.9c-7.34,0-11.8-5.15-11.8-11.9
			C95.93,18.26,100.39,13.12,107.73,13.12z M107.73,32.29c4.36,0,6.52-2.85,6.52-7.31c0-4.42-2.16-7.28-6.52-7.28
			c-4.36,0-6.56,2.85-6.56,7.28C101.17,29.44,103.37,32.29,107.73,32.29z"/>
		<path d="M121.13,26.88l17.93-8.52v-1.31l-2.95,0.98h-14.98v-4.59h19.24v9.67l-17.93,8.52v1.31l2.95-0.98h14.98v4.59h-19.24V26.88z
			"/>
		<path d="M143.32,13.45h16.49v4.59h-11.24v4.65h9.6v4.59h-9.6v4.69h11.24v4.59h-16.49V13.45z"/>
		<path d="M172.26,13.45h10.32l6.98,21.8h1.31l-0.98-3.28V13.45h5.24v23.11h-10.32l-6.98-21.8h-1.31l0.98,3.28v18.52h-5.24V13.45z"
			/>
		<path d="M219.73,13.12c7.31,0,11.77,5.15,11.77,11.86c0,6.75-4.46,11.9-11.77,11.9c-7.34,0-11.8-5.15-11.8-11.9
			C207.93,18.26,212.38,13.12,219.73,13.12z M219.73,32.29c4.36,0,6.52-2.85,6.52-7.31c0-4.42-2.16-7.28-6.52-7.28
			c-4.36,0-6.56,2.85-6.56,7.28C213.17,29.44,215.37,32.29,219.73,32.29z"/>
		<path d="M234.44,13.45h10.32l6.98,21.8h1.31l-0.98-3.28V13.45h5.24v23.11H247l-6.98-21.8h-1.31l0.98,3.28v18.52h-5.24V13.45z"/>
		<path d="M260.6,26.88l17.93-8.52v-1.31l-2.95,0.98H260.6v-4.59h19.24v9.67l-17.93,8.52v1.31l2.95-0.98h14.98v4.59H260.6V26.88z"/>
		<path d="M282.79,13.45h16.49v4.59h-11.24v4.65h9.6v4.59h-9.6v4.69h11.24v4.59h-16.49V13.45z"/>
	</g>
</g>
</svg>
