<?xml version="1.0" encoding="utf-8"?>
<!-- Generator: Adobe Illustrator 27.4.0, SVG Export Plug-In . SVG Version: 6.00 Build 0)  -->
<svg version="1.1" id="Layer_1" xmlns="http://www.w3.org/2000/svg" xmlns:xlink="http://www.w3.org/1999/xlink" x="0px" y="0px"
	 viewBox="0 0 1000 600" style="enable-background:new 0 0 1000 600;" xml:space="preserve">
<g>
	<polygon points="185,344.4 168.6,344.4 161.1,329.5 153.7,314.8 140.6,288.8 127.6,314.8 120.1,329.6 112.8,344.4 96.2,344.4 
		103.7,329.6 111,314.8 140.6,255.6 	"/>
	<path d="M281.8,312.5l18.2,31.9h-17l-25.8-44.5l13.2,0.1c4,0,7.4-1.4,10.3-4.3c3-2.9,4.4-6.4,4.4-10.5c0-4-1.4-7.4-4.4-10.3
		c-2.9-2.9-6.3-4.3-10.3-4.3h-29.6l-1.7-1.7l-7.7-13.2h39c8.1,0,15.1,2.9,20.9,8.7c5.8,5.9,8.7,12.8,8.7,20.9
		c0,6.2-1.7,11.8-5.2,16.8C291.4,306.8,287,310.4,281.8,312.5z"/>
	<path d="M432.7,312.5l18.2,31.9h-17l-25.8-44.5l13.2,0.1c4,0,7.4-1.4,10.3-4.3c3-2.9,4.4-6.4,4.4-10.5c0-4-1.4-7.4-4.4-10.3
		c-2.9-2.9-6.3-4.3-10.3-4.3h-29.6l-1.7-1.7l-7.7-13.2h39c8.1,0,15.1,2.9,20.9,8.7c5.8,5.9,8.7,12.8,8.7,20.9
		c0,6.2-1.7,11.8-5.2,16.8C442.2,306.8,437.9,310.4,432.7,312.5z"/>
	<path d="M555.7,270.2l14.8-14.6v88.8l-14.8-14.9V270.2z"/>
	<path d="M714.3,300c5.2,5,7.8,11.2,7.8,18.5c0,3.5-0.7,6.9-2,10c-1.3,3.2-3.2,5.9-5.5,8.2c-2.3,2.4-5.1,4.2-8.3,5.7
		c-3.1,1.3-6.4,2-10,2l-48.4,0.1l15.1-15h33.3c1.4,0,2.9-0.2,4.2-0.8c1.4-0.5,2.7-1.3,3.7-2.4c1-1,1.8-2.2,2.3-3.5s0.9-2.8,0.9-4.2
		s-0.3-2.9-0.9-4.2s-1.3-2.5-2.3-3.5s-2.1-1.9-3.4-2.4c-1.4-0.5-2.9-0.9-4.4-0.9h-33.3l-15.1-7.7l0,0l15.4-7.7l-0.3,0.6h33.3
		c1.4,0,2.9-0.2,4.2-0.9c1.4-0.6,2.7-1.3,3.7-2.4c1-1,1.8-2.2,2.3-3.5s0.9-2.8,0.9-4.3c0-1.4-0.3-2.9-0.9-4.2s-1.3-2.5-2.3-3.5
		c-1-1.1-2.2-1.9-3.7-2.4c-1.3-0.6-2.8-0.8-4.2-0.8h-33.3l-14.8-14.9h48.1c3.4,0,6.8,0.7,10,2c3.2,1.4,6,3.2,8.3,5.7
		c2.3,2.3,4.2,5,5.5,8.2c1.3,3.1,2,6.4,2,10C722.1,288.6,719.5,294.9,714.3,300z"/>
	<polygon points="903.8,255.6 896.3,270.3 889,285.1 859.4,344.4 815,255.6 831.4,255.6 839,270.4 846.3,285.1 859.4,311.2 
		872.4,285.1 879.9,270.3 887.2,255.6 	"/>
</g>
</svg>
