<?xml version="1.0" encoding="utf-8"?>
<!-- Generator: Adobe Illustrator 27.4.0, SVG Export Plug-In . SVG Version: 6.00 Build 0)  -->
<svg version="1.1" id="Layer_1" xmlns="http://www.w3.org/2000/svg" xmlns:xlink="http://www.w3.org/1999/xlink" x="0px" y="0px"
	 viewBox="0 0 1000 600" style="enable-background:new 0 0 1000 600;" xml:space="preserve">
<style type="text/css">
	.st0{display:none;}
	.st1{display:inline;}
</style>
<g class="st0">
	<polygon class="st1" points="185,344.4 168.6,344.4 161.1,329.5 153.7,314.8 140.6,288.8 127.6,314.8 120.1,329.6 112.8,344.4 
		96.2,344.4 103.7,329.6 111,314.8 140.6,255.6 	"/>
	<path class="st1" d="M281.8,312.5l18.2,31.9h-17l-25.8-44.5l13.2,0.1c4,0,7.4-1.4,10.3-4.3c3-2.9,4.4-6.4,4.4-10.5
		c0-4-1.4-7.4-4.4-10.3c-2.9-2.9-6.3-4.3-10.3-4.3h-29.6l-1.7-1.7l-7.7-13.2h39c8.1,0,15.1,2.9,20.9,8.7c5.8,5.9,8.7,12.8,8.7,20.9
		c0,6.2-1.7,11.8-5.2,16.8C291.4,306.8,287,310.4,281.8,312.5z"/>
	<path class="st1" d="M432.7,312.5l18.2,31.9h-17l-25.8-44.5l13.2,0.1c4,0,7.4-1.4,10.3-4.3c3-2.9,4.4-6.4,4.4-10.5
		c0-4-1.4-7.4-4.4-10.3c-2.9-2.9-6.3-4.3-10.3-4.3h-29.6l-1.7-1.7l-7.7-13.2h39c8.1,0,15.1,2.9,20.9,8.7c5.8,5.9,8.7,12.8,8.7,20.9
		c0,6.2-1.7,11.8-5.2,16.8C442.2,306.8,437.9,310.4,432.7,312.5z"/>
	<path class="st1" d="M555.7,270.2l14.8-14.6v88.8l-14.8-14.9V270.2z"/>
	<path class="st1" d="M714.3,300c5.2,5,7.8,11.2,7.8,18.5c0,3.5-0.7,6.9-2,10c-1.3,3.2-3.2,5.9-5.5,8.2c-2.3,2.4-5.1,4.2-8.3,5.7
		c-3.1,1.3-6.4,2-10,2l-48.4,0.1l15.1-15h33.3c1.4,0,2.9-0.2,4.2-0.8c1.4-0.5,2.7-1.3,3.7-2.4c1-1,1.8-2.2,2.3-3.5s0.9-2.8,0.9-4.2
		s-0.3-2.9-0.9-4.2s-1.3-2.5-2.3-3.5s-2.1-1.9-3.4-2.4c-1.4-0.5-2.9-0.9-4.4-0.9h-33.3l-15.1-7.7l0,0l15.4-7.7l-0.3,0.6h33.3
		c1.4,0,2.9-0.2,4.2-0.9c1.4-0.6,2.7-1.3,3.7-2.4c1-1,1.8-2.2,2.3-3.5s0.9-2.8,0.9-4.3c0-1.4-0.3-2.9-0.9-4.2s-1.3-2.5-2.3-3.5
		c-1-1.1-2.2-1.9-3.7-2.4c-1.3-0.6-2.8-0.8-4.2-0.8h-33.3l-14.8-14.9h48.1c3.4,0,6.8,0.7,10,2c3.2,1.4,6,3.2,8.3,5.7
		c2.3,2.3,4.2,5,5.5,8.2c1.3,3.1,2,6.4,2,10C722.1,288.6,719.5,294.9,714.3,300z"/>
	<polygon class="st1" points="903.8,255.6 896.3,270.3 889,285.1 859.4,344.4 815,255.6 831.4,255.6 839,270.4 846.3,285.1 
		859.4,311.2 872.4,285.1 879.9,270.3 887.2,255.6 	"/>
</g>
<g>
	<g>
		<path d="M147.1,303.5c0-2-0.6-3.6-1.7-4.9c-1.1-1.3-2.9-1.9-5.4-1.9s-4.3,0.6-5.5,1.9c-1.1,1.3-1.7,2.9-1.7,4.9v27.3
			c0,3.1-1.1,5.8-3.3,8s-4.9,3.3-8,3.3s-5.8-1.1-8-3.3c-2.2-2.2-3.3-4.9-3.3-8v-28.3c0-7.9,2.8-14.6,8.3-20.1s12.7-8.3,21.5-8.3
			c7.3,0,13.4,1.9,18.5,5.7c5-3.8,11.2-5.7,18.5-5.7c8.8,0,15.9,2.8,21.5,8.3c5.5,5.5,8.3,12.2,8.3,20.1v28.3c0,3.1-1.1,5.8-3.3,8
			s-4.9,3.3-8.1,3.3c-3.1,0-5.8-1.1-8-3.3c-2.2-2.2-3.3-4.9-3.3-8v-27.3c0-2-0.6-3.6-1.7-4.9c-1.1-1.3-2.9-1.9-5.4-1.9
			s-4.3,0.6-5.5,1.9c-1.1,1.3-1.7,2.9-1.7,4.9v27.3c0,3.1-1.1,5.8-3.3,8s-4.9,3.3-8.1,3.3c-3.1,0-5.7-1.1-8-3.3
			c-2.2-2.2-3.3-4.9-3.3-8V303.5z"/>
		<path d="M257.4,342.1c-9.4,0-17.4-3.3-24.1-10c-6.7-6.7-10-14.7-10-24.1s3.3-17.5,10-24.1s14.7-9.9,24.1-9.9
			c9.4,0,17.5,3.3,24.1,9.9s9.9,14.7,9.9,24.1s-3.3,17.4-9.9,24.1C274.9,338.8,266.8,342.1,257.4,342.1z M265.4,316.1
			c2.2-2.2,3.3-4.9,3.3-8s-1.1-5.8-3.3-8c-2.2-2.2-4.9-3.3-8-3.3s-5.8,1.1-8,3.3c-2.2,2.2-3.3,4.9-3.3,8s1.1,5.8,3.3,8
			s4.9,3.3,8,3.3S263.2,318.3,265.4,316.1z"/>
		<path d="M326,276c3.6-1.4,7.6-2,11.9-2c8.8,0,15.9,2.8,21.5,8.3c5.5,5.5,8.3,12.2,8.3,20.1v28.3c0,3.1-1.1,5.8-3.3,8
			c-2.2,2.2-4.9,3.3-8.1,3.3c-3.1,0-5.8-1.1-8-3.3c-2.2-2.2-3.3-4.9-3.3-8v-27.3c0-2-0.6-3.6-1.7-4.9s-2.9-1.9-5.4-1.9
			s-4.3,0.6-5.5,1.9c-1.1,1.3-1.7,2.9-1.7,4.9v27.3c0,3.1-1.1,5.8-3.3,8c-2.2,2.2-4.9,3.3-8,3.3s-5.8-1.1-8-3.3
			c-2.2-2.2-3.3-4.9-3.3-8v-45.4c0-3.2,1.1-5.9,3.3-8.1c2.2-2.2,4.9-3.3,8-3.3C321.9,274,324.1,274.7,326,276z"/>
		<path d="M439.7,335.6c-4,2.9-8.6,4.9-14,5.9c-9.3,1.7-17.7-0.2-25.5-5.5c-7.7-5.4-12.4-12.7-14.1-21.9c-1.7-9.3,0.2-17.8,5.5-25.5
			c5.4-7.7,12.7-12.4,21.9-14.1c4-0.7,7.8-0.8,11.5-0.2l-1-13.1c-0.6-3.1,0.1-6,1.8-8.5c1.8-2.6,4.2-4.1,7.3-4.7
			c3.1-0.6,5.9,0.1,8.5,1.8c2.6,1.8,4.1,4.2,4.7,7.4l10.7,67.2c0.6,3.1,0,5.9-1.8,8.5s-4.2,4.2-7.3,4.7
			C445.1,338,442.3,337.4,439.7,335.6z M429,314.4c1.8-2.6,2.4-5.4,1.9-8.5s-2.1-5.5-4.7-7.3s-5.4-2.4-8.5-1.9s-5.5,2.1-7.3,4.7
			s-2.4,5.4-1.9,8.5s2.1,5.5,4.7,7.3s5.4,2.4,8.5,1.9S427.2,317,429,314.4z"/>
		<path d="M507,342.1c-9.4,0-17.4-3.3-24.1-10s-10-14.7-10-24.1s3.3-17.5,10-24.1s14.7-9.9,24.1-9.9c9.4,0,17.5,3.3,24.1,9.9
			s9.9,14.7,9.9,24.1s-3.3,17.4-9.9,24.1C524.5,338.8,516.4,342.1,507,342.1z M515,316.1c2.2-2.2,3.3-4.9,3.3-8s-1.1-5.8-3.3-8
			s-4.9-3.3-8-3.3s-5.8,1.1-8,3.3c-2.2,2.2-3.3,4.9-3.3,8s1.1,5.8,3.3,8c2.2,2.2,4.9,3.3,8,3.3S512.8,318.3,515,316.1z"/>
		<path d="M557.6,285.4c0-3.2,1.1-5.9,3.3-8.1s4.9-3.3,8-3.3c3.2,0,5.9,1.1,8.1,3.3c2.2,2.2,3.3,4.9,3.3,8.1V341
			c0,7.9-2.8,14.6-8.3,20.1s-12.2,8.3-20,8.3c-3.1,0-5.8-1.1-8-3.3c-2.2-2.2-3.3-4.9-3.3-8s1.1-5.8,3.3-8s4.9-3.3,8-3.3
			c3.4,0,5.3-1.9,5.7-5.7v-55.7H557.6z"/>
		<path d="M580.3,258c0,3.1-1.1,5.8-3.3,8s-4.9,3.3-8,3.3s-5.8-1.1-8-3.3c-2.2-2.2-3.3-4.9-3.3-8s1.1-5.8,3.3-8s4.9-3.3,8-3.3
			s5.8,1.1,8,3.3S580.3,254.9,580.3,258z"/>
		<path d="M645.8,338.9c-4.5,2.2-9.4,3.3-14.8,3.3c-9.4,0-17.4-3.3-24.1-10c-6.7-6.7-10-14.7-10-24.1s3.3-17.5,10-24.1
			s14.7-9.9,24.1-9.9c5.4,0,10.3,1.1,14.8,3.2c2.2-2.1,4.9-3.2,8-3.2s5.8,1.1,8,3.3c2.2,2.2,3.3,4.9,3.3,8.1v45.4
			c0,3.1-1.1,5.8-3.3,8s-4.9,3.3-8,3.3C650.7,342.1,648,341,645.8,338.9z M639.1,316.1c2.2-2.2,3.3-4.9,3.3-8s-1.1-5.8-3.3-8
			s-4.9-3.3-8-3.3s-5.8,1.1-8,3.3c-2.2,2.2-3.3,4.9-3.3,8s1.1,5.8,3.3,8s4.9,3.3,8,3.3C634.1,319.4,636.8,318.3,639.1,316.1z"/>
		<path d="M712.1,275.5c4.7-1.5,9.8-1.8,15-0.9c9.3,1.5,16.8,6,22.3,13.6s7.5,16,6.1,25.4c-1.5,9.3-6,16.7-13.6,22.3
			c-7.6,5.5-16,7.6-25.4,6.1c-4-0.6-7.6-1.8-11-3.6l-5.6,20.5c-0.5,3.1-2,5.6-4.5,7.4c-2.5,1.9-5.3,2.5-8.4,2.1
			c-3.1-0.5-5.6-2-7.4-4.5c-1.9-2.5-2.5-5.4-2-8.5l14.1-74.7c0.5-3.1,2-5.6,4.6-7.5c2.5-1.8,5.4-2.5,8.5-2
			C707.8,271.5,710.3,273,712.1,275.5z M728.6,317.4c2.5-1.9,4.1-4.3,4.5-7.4c0.5-3.1-0.2-5.9-2-8.5c-1.9-2.5-4.3-4.1-7.4-4.5
			c-3.1-0.5-5.9,0.2-8.5,2c-2.5,1.9-4.1,4.3-4.5,7.4c-0.5,3.1,0.2,5.9,2,8.5c1.9,2.5,4.3,4.1,7.4,4.5
			C723.2,319.9,726.1,319.2,728.6,317.4z"/>
	</g>
	<g>
		<g>
			<path d="M782.1,369.2c-5.3,0-9.6-4.3-9.6-9.6s4.3-9.6,9.6-9.6c38.7,0,66.1-15.4,81.5-45.7c11.9-23.5,12.1-47.6,12.1-47.8
				c0-5.3,4.3-9.6,9.6-9.6l0,0c5.3,0,9.6,4.3,9.6,9.5c0,2-0.2,50.1-33.1,83.1C842,359.2,815.3,369.2,782.1,369.2z"/>
		</g>
		<path d="M829.3,286.6c0,5.1-2.9,8.8-7.1,9.8c-4.6,1.1-9-0.7-10.8-4.9c-4.2-10.2-8.4-20.5-12.2-30.9c-2-5.5,0.5-10.4,5.5-12.1
			c5.2-1.9,10.1,0.4,12.3,6c3.8,9.4,7.4,18.8,11.1,28.2C828.7,284.1,829,285.7,829.3,286.6z"/>
		<path d="M772.9,269.8c-2-5.5,0.5-10.4,5.5-12.1c5.2-1.9,10.1,0.4,12.3,6c3.8,9.4,7.4,18.8,11.1,28.2c0.6,1.5,0.9,3.1,1.2,4
			c0,5.1-2.9,8.8-7.1,9.8c-4.6,1.1-9-0.7-10.8-4.9C780.8,290.5,776.7,280.2,772.9,269.8"/>
	</g>
</g>
</svg>
