<?xml version="1.0" ?><svg enable-background="new 0 0 32 32" version="1.1" viewBox="0 0 32 32" xml:space="preserve" xmlns="http://www.w3.org/2000/svg" xmlns:xlink="http://www.w3.org/1999/xlink"><g id="Glyph"><path d="M21.945,3.118l-1.493-1.493H1.625v27.257h8.43l1.493,1.493h18.827V3.118H21.945z M11.702,22.524H8.327V12.37h3.375V22.524z    M10.015,10.984H9.993c-1.133,0-1.866-0.78-1.866-1.755c0-0.996,0.755-1.754,1.909-1.754s1.866,0.758,1.887,1.754   C11.924,10.204,11.191,10.984,10.015,10.984z M23.872,22.524L23.872,22.524l-3.375,0v-5.433c0-1.365-0.488-2.296-1.71-2.296   c-0.932,0-1.487,0.628-1.731,1.234c-0.089,0.217-0.111,0.52-0.111,0.823v5.671H13.57c0,0,0.045-9.201,0-10.154h3.375v1.439   c0.447-0.691,1.25-1.677,3.042-1.677c2.22,0,3.885,1.451,3.885,4.571V22.524z"/></g></svg>